<?xml version="1.0" standalone="no"?>
<!DOCTYPE svg PUBLIC "-//W3C//DTD SVG 20010904//EN"
 "http://www.w3.org/TR/2001/REC-SVG-20010904/DTD/svg10.dtd">
<svg version="1.0" xmlns="http://www.w3.org/2000/svg"
 width="76.000000pt" height="76.000000pt" viewBox="0 0 76.000000 76.000000"
 preserveAspectRatio="xMidYMid meet">
<metadata>
Created by potrace 1.14, written by Peter Selinger 2001-2017
</metadata>
<g transform="translate(0.000000,76.000000) scale(0.100000,-0.100000)"
fill="#000000" stroke="none">
<path d="M354 720 c-74 -17 -90 -36 -248 -314 -112 -195 -121 -229 -78 -295
38 -60 102 -82 170 -61 33 11 92 62 92 80 0 7 85 156 149 263 45 73 74 50 176
-136 30 -55 34 -70 25 -86 -12 -24 -10 -23 -68 -25 -48 -2 -59 6 -38 26 12 12
9 22 -17 65 l-31 52 -53 -92 c-57 -99 -62 -117 -37 -138 20 -16 203 -22 248
-7 68 23 116 101 100 165 -13 50 -134 252 -169 281 -62 51 -158 37 -207 -29
-14 -19 -60 -95 -102 -170 -42 -75 -83 -142 -91 -149 -18 -15 -52 -4 -66 21
-10 20 12 63 202 389 33 57 90 90 172 99 18 2 4 21 -30 42 -43 27 -56 29 -99
19z"/>
</g>
</svg>
